# Blender 5.1.1
# www.blender.org
mtllib Untitled.mtl
o Cube.002
v 32.577274 -14.791915 6.110927
v 32.577274 -14.366003 6.536839
v 32.151363 -14.366003 6.110927
v 32.577274 -14.771061 6.242565
v 32.577274 -14.710603 6.361229
v 32.445637 -14.771061 6.110926
v 32.442146 -14.746365 6.246816
v 32.446552 -14.689290 6.355461
v 32.326973 -14.710603 6.110926
v 32.332523 -14.688989 6.241988
v 32.351917 -14.648542 6.336284
v 32.445637 -14.366003 6.515985
v 32.326973 -14.366003 6.455526
v 32.577274 -14.497641 6.515985
v 32.441383 -14.501131 6.491288
v 32.332741 -14.496727 6.434214
v 32.577274 -14.616305 6.455526
v 32.446213 -14.610755 6.433912
v 32.351917 -14.591360 6.393466
v 32.172218 -14.497642 6.110926
v 32.232674 -14.616305 6.110926
v 32.172218 -14.366003 6.242565
v 32.196911 -14.501892 6.246055
v 32.253986 -14.610538 6.241650
v 32.232674 -14.366003 6.361229
v 32.254288 -14.497065 6.355679
v 32.294735 -14.591360 6.336284
v 32.577274 -7.516127 6.536839
v 32.577274 -7.090215 6.110927
v 32.151363 -7.516127 6.110927
v 32.577274 -7.384488 6.515985
v 32.577274 -7.265824 6.455526
v 32.445637 -7.516127 6.515985
v 32.442146 -7.380238 6.491288
v 32.446552 -7.271592 6.434214
v 32.326973 -7.516127 6.455526
v 32.332523 -7.385066 6.433912
v 32.351917 -7.290769 6.393466
v 32.445637 -7.111069 6.110926
v 32.326973 -7.171527 6.110926
v 32.577274 -7.111069 6.242565
v 32.441383 -7.135765 6.246055
v 32.332741 -7.192840 6.241650
v 32.577274 -7.171527 6.361229
v 32.446213 -7.193141 6.355679
v 32.351917 -7.233588 6.336284
v 32.172218 -7.516127 6.242565
v 32.232674 -7.516127 6.361229
v 32.172218 -7.384489 6.110926
v 32.196911 -7.380999 6.246816
v 32.253986 -7.385403 6.355461
v 32.232674 -7.265824 6.110926
v 32.254288 -7.271375 6.241988
v 32.294735 -7.290769 6.336284
v 32.577274 -14.791915 -0.738950
v 32.151363 -14.366003 -0.738950
v 32.577274 -14.366003 -1.164861
v 32.445637 -14.771061 -0.738949
v 32.326973 -14.710603 -0.738949
v 32.577274 -14.771061 -0.870588
v 32.441383 -14.746365 -0.874078
v 32.332741 -14.689290 -0.869673
v 32.577274 -14.710603 -0.989252
v 32.446213 -14.688989 -0.983702
v 32.351917 -14.648542 -0.964307
v 32.172218 -14.366003 -0.870588
v 32.232674 -14.366003 -0.989252
v 32.172218 -14.497641 -0.738949
v 32.196911 -14.501131 -0.874839
v 32.253986 -14.496727 -0.983484
v 32.232674 -14.616305 -0.738949
v 32.254288 -14.610755 -0.870011
v 32.294735 -14.591360 -0.964307
v 32.577274 -14.497642 -1.144008
v 32.577274 -14.616305 -1.083549
v 32.445637 -14.366003 -1.144008
v 32.442146 -14.501892 -1.119312
v 32.446552 -14.610538 -1.062237
v 32.326973 -14.366003 -1.083549
v 32.332523 -14.497065 -1.061935
v 32.351917 -14.591360 -1.021489
v 32.577274 -7.090215 -0.738950
v 32.577274 -7.516127 -1.164861
v 32.151363 -7.516127 -0.738950
v 32.577274 -7.111069 -0.870588
v 32.577274 -7.171527 -0.989252
v 32.445637 -7.111069 -0.738949
v 32.442146 -7.135765 -0.874839
v 32.446552 -7.192840 -0.983484
v 32.326973 -7.171527 -0.738949
v 32.332523 -7.193141 -0.870011
v 32.351917 -7.233588 -0.964307
v 32.445637 -7.516127 -1.144008
v 32.326973 -7.516127 -1.083549
v 32.577274 -7.384489 -1.144008
v 32.441383 -7.380999 -1.119312
v 32.332741 -7.385403 -1.062237
v 32.577274 -7.265824 -1.083549
v 32.446213 -7.271375 -1.061935
v 32.351917 -7.290769 -1.021489
v 32.172218 -7.384488 -0.738949
v 32.232674 -7.265824 -0.738949
v 32.172218 -7.516127 -0.870588
v 32.196911 -7.380238 -0.874078
v 32.253986 -7.271592 -0.869673
v 32.232674 -7.516127 -0.989252
v 32.254288 -7.385066 -0.983702
v 32.294735 -7.290769 -0.964307
v 39.427151 -14.791915 6.110927
v 39.853062 -14.366003 6.110927
v 39.427151 -14.366003 6.536839
v 39.558788 -14.771061 6.110926
v 39.677452 -14.710603 6.110926
v 39.427151 -14.771061 6.242565
v 39.563042 -14.746365 6.246055
v 39.671684 -14.689290 6.241650
v 39.427151 -14.710603 6.361229
v 39.558212 -14.688989 6.355679
v 39.652508 -14.648542 6.336284
v 39.832207 -14.366003 6.242565
v 39.771751 -14.366003 6.361229
v 39.832207 -14.497641 6.110926
v 39.807514 -14.501131 6.246816
v 39.750439 -14.496727 6.355461
v 39.771751 -14.616305 6.110926
v 39.750137 -14.610755 6.241988
v 39.709690 -14.591360 6.336284
v 39.427151 -14.497642 6.515985
v 39.427151 -14.616305 6.455526
v 39.558788 -14.366003 6.515985
v 39.562279 -14.501892 6.491288
v 39.557873 -14.610538 6.434214
v 39.677452 -14.366003 6.455526
v 39.671902 -14.497065 6.433912
v 39.652508 -14.591360 6.393466
v 39.427151 -7.090215 6.110927
v 39.427151 -7.516127 6.536839
v 39.853062 -7.516127 6.110927
v 39.427151 -7.111069 6.242565
v 39.427151 -7.171527 6.361229
v 39.558788 -7.111069 6.110926
v 39.562279 -7.135765 6.246816
v 39.557873 -7.192840 6.355461
v 39.677452 -7.171527 6.110926
v 39.671902 -7.193141 6.241988
v 39.652508 -7.233588 6.336284
v 39.558788 -7.516127 6.515985
v 39.677452 -7.516127 6.455526
v 39.427151 -7.384489 6.515985
v 39.563042 -7.380999 6.491288
v 39.671684 -7.385403 6.434214
v 39.427151 -7.265824 6.455526
v 39.558212 -7.271375 6.433912
v 39.652508 -7.290769 6.393466
v 39.832207 -7.384488 6.110926
v 39.771751 -7.265824 6.110926
v 39.832207 -7.516127 6.242565
v 39.807514 -7.380238 6.246055
v 39.750439 -7.271592 6.241650
v 39.771751 -7.516127 6.361229
v 39.750137 -7.385066 6.355679
v 39.709690 -7.290769 6.336284
v 39.427151 -14.791915 -0.738950
v 39.427151 -14.366003 -1.164861
v 39.853062 -14.366003 -0.738950
v 39.427151 -14.771061 -0.870588
v 39.427151 -14.710603 -0.989252
v 39.558788 -14.771061 -0.738949
v 39.562279 -14.746365 -0.874839
v 39.557873 -14.689290 -0.983484
v 39.677452 -14.710603 -0.738949
v 39.671902 -14.688989 -0.870011
v 39.652508 -14.648542 -0.964307
v 39.558788 -14.366003 -1.144008
v 39.677452 -14.366003 -1.083549
v 39.427151 -14.497641 -1.144008
v 39.563042 -14.501131 -1.119312
v 39.671684 -14.496727 -1.062237
v 39.427151 -14.616305 -1.083549
v 39.558212 -14.610755 -1.061935
v 39.652508 -14.591360 -1.021489
v 39.832207 -14.497642 -0.738949
v 39.771751 -14.616305 -0.738949
v 39.832207 -14.366003 -0.870588
v 39.807514 -14.501892 -0.874078
v 39.750439 -14.610538 -0.869673
v 39.771751 -14.366003 -0.989252
v 39.750137 -14.497065 -0.983702
v 39.709690 -14.591360 -0.964307
v 39.427151 -7.090215 -0.738950
v 39.853062 -7.516127 -0.738950
v 39.427151 -7.516127 -1.164861
v 39.558788 -7.111069 -0.738949
v 39.677452 -7.171527 -0.738949
v 39.427151 -7.111069 -0.870588
v 39.563042 -7.135765 -0.874078
v 39.671684 -7.192840 -0.869673
v 39.427151 -7.171527 -0.989252
v 39.558212 -7.193141 -0.983702
v 39.652508 -7.233588 -0.964307
v 39.832207 -7.516127 -0.870588
v 39.771751 -7.516127 -0.989252
v 39.832207 -7.384489 -0.738949
v 39.807514 -7.380999 -0.874839
v 39.750439 -7.385403 -0.983484
v 39.771751 -7.265824 -0.738949
v 39.750137 -7.271375 -0.870011
v 39.709690 -7.290769 -0.964307
v 39.427151 -7.384488 -1.144008
v 39.427151 -7.265824 -1.083549
v 39.558788 -7.516127 -1.144008
v 39.562279 -7.380238 -1.119312
v 39.557873 -7.271592 -1.062237
v 39.677452 -7.516127 -1.083549
v 39.671902 -7.385066 -1.061935
v 39.652508 -7.290769 -1.021489
vn -0.0802 -0.9935 0.0802
vn -0.0802 -0.0802 0.9935
vn -0.9935 -0.0802 0.0802
vn -0.0802 -0.9479 0.3083
vn -0.0754 -0.8071 0.5856
vn -0.3084 -0.9478 0.0805
vn -0.3068 -0.9006 0.3077
vn -0.2854 -0.7707 0.5696
vn -0.5853 -0.8072 0.0758
vn -0.5698 -0.7705 0.2858
vn -0.5156 -0.6844 0.5155
vn -0.3083 -0.0802 0.9479
vn -0.5856 -0.0754 0.8071
vn -0.0805 -0.3084 0.9478
vn -0.3077 -0.3068 0.9006
vn -0.5697 -0.2854 0.7707
vn -0.0758 -0.5853 0.8072
vn -0.2858 -0.5698 0.7705
vn -0.5155 -0.5156 0.6844
vn -0.9479 -0.3083 0.0802
vn -0.8071 -0.5856 0.0754
vn -0.9478 -0.0805 0.3084
vn -0.9006 -0.3077 0.3068
vn -0.7707 -0.5697 0.2854
vn -0.8072 -0.0758 0.5853
vn -0.7705 -0.2858 0.5698
vn -0.6844 -0.5155 0.5156
vn -0.0802 0.0802 0.9935
vn -0.0802 0.9935 0.0802
vn -0.9935 0.0802 0.0802
vn -0.0802 0.3083 0.9479
vn -0.0754 0.5856 0.8071
vn -0.3085 0.0805 0.9478
vn -0.3068 0.3077 0.9006
vn -0.2854 0.5697 0.7707
vn -0.5853 0.0758 0.8072
vn -0.5698 0.2858 0.7705
vn -0.5156 0.5155 0.6844
vn -0.3083 0.9479 0.0802
vn -0.5856 0.8071 0.0754
vn -0.0805 0.9478 0.3085
vn -0.3077 0.9006 0.3068
vn -0.5697 0.7707 0.2854
vn -0.0758 0.8072 0.5853
vn -0.2858 0.7705 0.5698
vn -0.5155 0.6844 0.5156
vn -0.9479 0.0802 0.3083
vn -0.8071 0.0754 0.5856
vn -0.9478 0.3085 0.0805
vn -0.9006 0.3068 0.3077
vn -0.7707 0.2854 0.5697
vn -0.8072 0.5853 0.0758
vn -0.7705 0.5698 0.2858
vn -0.6844 0.5156 0.5155
vn -0.0802 -0.9935 -0.0802
vn -0.9935 -0.0802 -0.0802
vn -0.0802 -0.0802 -0.9935
vn -0.3083 -0.9479 -0.0802
vn -0.5856 -0.8071 -0.0754
vn -0.0805 -0.9478 -0.3085
vn -0.3077 -0.9006 -0.3068
vn -0.5697 -0.7707 -0.2854
vn -0.0758 -0.8072 -0.5853
vn -0.2858 -0.7705 -0.5698
vn -0.5155 -0.6844 -0.5156
vn -0.9479 -0.0802 -0.3083
vn -0.8071 -0.0754 -0.5856
vn -0.9478 -0.3085 -0.0805
vn -0.9006 -0.3068 -0.3077
vn -0.7707 -0.2854 -0.5697
vn -0.8072 -0.5853 -0.0758
vn -0.7705 -0.5698 -0.2858
vn -0.6844 -0.5156 -0.5155
vn -0.0802 -0.3083 -0.9479
vn -0.0754 -0.5856 -0.8071
vn -0.3085 -0.0805 -0.9478
vn -0.3068 -0.3077 -0.9006
vn -0.2854 -0.5697 -0.7707
vn -0.5853 -0.0758 -0.8072
vn -0.5698 -0.2858 -0.7705
vn -0.5156 -0.5155 -0.6844
vn -0.0802 0.9935 -0.0802
vn -0.0802 0.0802 -0.9935
vn -0.9935 0.0802 -0.0802
vn -0.0802 0.9479 -0.3083
vn -0.0754 0.8071 -0.5856
vn -0.3084 0.9478 -0.0805
vn -0.3068 0.9006 -0.3077
vn -0.2854 0.7707 -0.5697
vn -0.5853 0.8072 -0.0758
vn -0.5698 0.7705 -0.2858
vn -0.5156 0.6844 -0.5155
vn -0.3083 0.0802 -0.9479
vn -0.5856 0.0754 -0.8071
vn -0.0805 0.3084 -0.9478
vn -0.3077 0.3068 -0.9006
vn -0.5697 0.2854 -0.7707
vn -0.0758 0.5853 -0.8072
vn -0.2858 0.5698 -0.7705
vn -0.5155 0.5156 -0.6844
vn -0.9479 0.3083 -0.0802
vn -0.8071 0.5856 -0.0754
vn -0.9478 0.0805 -0.3084
vn -0.9006 0.3077 -0.3068
vn -0.7707 0.5696 -0.2854
vn -0.8072 0.0758 -0.5853
vn -0.7705 0.2858 -0.5698
vn -0.6844 0.5155 -0.5156
vn 0.0802 -0.9935 0.0802
vn 0.9935 -0.0802 0.0802
vn 0.0802 -0.0802 0.9935
vn 0.3083 -0.9479 0.0802
vn 0.5856 -0.8071 0.0754
vn 0.0805 -0.9478 0.3085
vn 0.3077 -0.9006 0.3068
vn 0.5697 -0.7707 0.2854
vn 0.0758 -0.8072 0.5853
vn 0.2858 -0.7705 0.5698
vn 0.5155 -0.6844 0.5156
vn 0.9479 -0.0802 0.3083
vn 0.8071 -0.0754 0.5856
vn 0.9478 -0.3085 0.0805
vn 0.9006 -0.3068 0.3077
vn 0.7707 -0.2854 0.5697
vn 0.8072 -0.5853 0.0758
vn 0.7705 -0.5698 0.2858
vn 0.6844 -0.5156 0.5155
vn 0.0802 -0.3083 0.9479
vn 0.0754 -0.5856 0.8071
vn 0.3085 -0.0805 0.9478
vn 0.3068 -0.3077 0.9006
vn 0.2854 -0.5697 0.7707
vn 0.5853 -0.0758 0.8072
vn 0.5698 -0.2858 0.7705
vn 0.5156 -0.5155 0.6844
vn 0.0802 0.9935 0.0802
vn 0.0802 0.0802 0.9935
vn 0.9935 0.0802 0.0802
vn 0.0802 0.9479 0.3083
vn 0.0754 0.8071 0.5856
vn 0.3084 0.9478 0.0805
vn 0.3068 0.9006 0.3077
vn 0.2854 0.7707 0.5696
vn 0.5853 0.8072 0.0758
vn 0.5698 0.7705 0.2858
vn 0.5156 0.6844 0.5155
vn 0.3083 0.0802 0.9479
vn 0.5856 0.0754 0.8071
vn 0.0805 0.3084 0.9478
vn 0.3077 0.3068 0.9006
vn 0.5696 0.2854 0.7707
vn 0.0758 0.5853 0.8072
vn 0.2858 0.5698 0.7705
vn 0.5155 0.5156 0.6844
vn 0.9479 0.3083 0.0802
vn 0.8071 0.5856 0.0754
vn 0.9478 0.0805 0.3084
vn 0.9006 0.3077 0.3068
vn 0.7707 0.5696 0.2854
vn 0.8072 0.0758 0.5853
vn 0.7705 0.2858 0.5698
vn 0.6844 0.5155 0.5156
vn 0.0802 -0.9935 -0.0802
vn 0.0802 -0.0802 -0.9935
vn 0.9935 -0.0802 -0.0802
vn 0.0802 -0.9479 -0.3083
vn 0.0754 -0.8071 -0.5856
vn 0.3084 -0.9478 -0.0805
vn 0.3068 -0.9006 -0.3077
vn 0.2854 -0.7707 -0.5697
vn 0.5853 -0.8072 -0.0758
vn 0.5698 -0.7705 -0.2858
vn 0.5156 -0.6844 -0.5155
vn 0.3083 -0.0802 -0.9479
vn 0.5856 -0.0754 -0.8071
vn 0.0805 -0.3084 -0.9478
vn 0.3077 -0.3068 -0.9006
vn 0.5696 -0.2854 -0.7707
vn 0.0758 -0.5853 -0.8072
vn 0.2858 -0.5698 -0.7705
vn 0.5155 -0.5156 -0.6844
vn 0.9479 -0.3083 -0.0802
vn 0.8071 -0.5856 -0.0754
vn 0.9478 -0.0805 -0.3084
vn 0.9006 -0.3077 -0.3068
vn 0.7707 -0.5697 -0.2854
vn 0.8072 -0.0758 -0.5853
vn 0.7705 -0.2858 -0.5698
vn 0.6844 -0.5155 -0.5156
vn 0.0802 0.9935 -0.0802
vn 0.9935 0.0802 -0.0802
vn 0.0802 0.0802 -0.9935
vn 0.3083 0.9479 -0.0802
vn 0.5856 0.8071 -0.0754
vn 0.0805 0.9478 -0.3085
vn 0.3077 0.9006 -0.3068
vn 0.5697 0.7707 -0.2854
vn 0.0758 0.8072 -0.5853
vn 0.2858 0.7705 -0.5698
vn 0.5155 0.6844 -0.5156
vn 0.9479 0.0802 -0.3083
vn 0.8071 0.0754 -0.5856
vn 0.9478 0.3085 -0.0805
vn 0.9006 0.3068 -0.3077
vn 0.7707 0.2854 -0.5697
vn 0.8072 0.5853 -0.0758
vn 0.7705 0.5698 -0.2858
vn 0.6844 0.5156 -0.5155
vn 0.0802 0.3083 -0.9479
vn 0.0754 0.5856 -0.8071
vn 0.3085 0.0805 -0.9478
vn 0.3068 0.3077 -0.9006
vn 0.2854 0.5697 -0.7707
vn 0.5853 0.0758 -0.8072
vn 0.5698 0.2858 -0.7705
vn 0.5156 0.5155 -0.6844
vt 0.138825 0.736175
vt 0.138825 0.740448
vt 0.134439 0.740586
vt 0.134552 0.736175
vt 0.138825 0.744300
vt 0.134582 0.744112
vt 0.138825 0.750000
vt 0.134571 0.750000
vt 0.130881 0.740429
vt 0.130700 0.736175
vt 0.131510 0.743490
vt 0.131510 0.750000
vt 0.388825 0.986175
vt 0.388825 0.990448
vt 0.384439 0.990586
vt 0.384552 0.986175
vt 0.388825 1.000000
vt 0.384582 1.000000
vt 0.388825 0.000000
vt 0.388825 0.005700
vt 0.384571 0.005881
vt 0.384582 0.000000
vt 0.375000 0.990429
vt 0.375000 0.986175
vt 0.375000 0.993490
vt 0.375000 0.006510
vt 0.375000 0.000000
vt 0.388825 0.013825
vt 0.384552 0.013825
vt 0.384414 0.009439
vt 0.388825 0.009552
vt 0.375000 0.013825
vt 0.375000 0.009582
vt 0.125000 0.736175
vt 0.125000 0.740418
vt 0.125000 0.743490
vt 0.611175 0.986175
vt 0.615448 0.986175
vt 0.615586 0.990561
vt 0.611175 0.990448
vt 0.619300 0.986175
vt 0.619112 0.990418
vt 0.625000 0.986175
vt 0.625000 0.990429
vt 0.615429 1.000000
vt 0.611175 1.000000
vt 0.618490 1.000000
vt 0.625000 1.000000
vt 0.861175 0.736175
vt 0.865448 0.736175
vt 0.865586 0.740561
vt 0.861175 0.740448
vt 0.875000 0.736175
vt 0.875000 0.740418
vt 0.625000 0.013825
vt 0.619300 0.013825
vt 0.619119 0.009571
vt 0.625000 0.009582
vt 0.865429 0.750000
vt 0.861175 0.750000
vt 0.875000 0.743490
vt 0.618490 0.006510
vt 0.625000 0.006510
vt 0.611175 0.013825
vt 0.611175 0.009552
vt 0.615561 0.009414
vt 0.615448 0.013825
vt 0.611175 0.005700
vt 0.615418 0.005888
vt 0.611175 0.000000
vt 0.615429 0.000000
vt 0.618490 0.000000
vt 0.138825 0.513825
vt 0.134552 0.513825
vt 0.134414 0.509439
vt 0.138825 0.509552
vt 0.130700 0.513825
vt 0.130888 0.509582
vt 0.125000 0.513825
vt 0.125000 0.509571
vt 0.134571 0.505880
vt 0.138825 0.505700
vt 0.131510 0.506510
vt 0.125000 0.506510
vt 0.388825 0.236175
vt 0.388825 0.240448
vt 0.384439 0.240586
vt 0.384552 0.236175
vt 0.388825 0.244300
vt 0.384582 0.244112
vt 0.388825 0.255700
vt 0.384571 0.255881
vt 0.375000 0.240429
vt 0.375000 0.236175
vt 0.375000 0.243490
vt 0.375000 0.256510
vt 0.388825 0.263825
vt 0.384552 0.263825
vt 0.384414 0.259439
vt 0.388825 0.259552
vt 0.375000 0.263825
vt 0.375000 0.259582
vt 0.138825 0.500000
vt 0.134582 0.500000
vt 0.131510 0.500000
vt 0.861175 0.513825
vt 0.861175 0.509552
vt 0.865561 0.509414
vt 0.865448 0.513825
vt 0.861175 0.500000
vt 0.865418 0.500000
vt 0.625000 0.263825
vt 0.619300 0.263825
vt 0.619119 0.259571
vt 0.625000 0.259582
vt 0.875000 0.509571
vt 0.875000 0.513825
vt 0.875000 0.506510
vt 0.618490 0.253719
vt 0.625000 0.245660
vt 0.611175 0.263825
vt 0.611175 0.259552
vt 0.615561 0.259414
vt 0.615448 0.263825
vt 0.611175 0.255700
vt 0.615418 0.255888
vt 0.611175 0.244300
vt 0.615429 0.244119
vt 0.618490 0.243490
vt 0.611175 0.236175
vt 0.615448 0.236175
vt 0.615586 0.240561
vt 0.611175 0.240448
vt 0.619300 0.236175
vt 0.619112 0.240418
vt 0.625000 0.236175
vt 0.625000 0.240429
vt 0.361175 0.736175
vt 0.365448 0.736175
vt 0.365586 0.740561
vt 0.361175 0.740448
vt 0.369300 0.736175
vt 0.369112 0.740418
vt 0.380700 0.736175
vt 0.380881 0.740429
vt 0.365429 0.744119
vt 0.361175 0.744300
vt 0.368490 0.743490
vt 0.378719 0.743490
vt 0.388825 0.736175
vt 0.388825 0.740448
vt 0.384439 0.740586
vt 0.384552 0.736175
vt 0.388825 0.744300
vt 0.384582 0.744112
vt 0.388825 0.755700
vt 0.384571 0.755881
vt 0.371745 0.753255
vt 0.388825 0.763825
vt 0.384552 0.763825
vt 0.384414 0.759439
vt 0.388825 0.759552
vt 0.368087 0.756913
vt 0.370209 0.754791
vt 0.638825 0.736175
vt 0.638825 0.740448
vt 0.634439 0.740586
vt 0.634552 0.736175
vt 0.631913 0.756913
vt 0.629791 0.754791
vt 0.619300 0.763825
vt 0.619119 0.759571
vt 0.630880 0.740429
vt 0.630700 0.736175
vt 0.628255 0.753255
vt 0.618490 0.756510
vt 0.611175 0.763825
vt 0.611175 0.759552
vt 0.615561 0.759414
vt 0.615448 0.763825
vt 0.611175 0.755700
vt 0.615418 0.755888
vt 0.611175 0.744300
vt 0.615429 0.744119
vt 0.618490 0.746281
vt 0.611175 0.736175
vt 0.615448 0.736175
vt 0.615586 0.740561
vt 0.611175 0.740448
vt 0.619300 0.736175
vt 0.619112 0.740418
vt 0.361175 0.513825
vt 0.361175 0.509552
vt 0.365561 0.509414
vt 0.365448 0.513825
vt 0.361175 0.505700
vt 0.365418 0.505888
vt 0.368087 0.493087
vt 0.370215 0.495215
vt 0.369119 0.509571
vt 0.369300 0.513825
vt 0.368490 0.506510
vt 0.371745 0.496745
vt 0.388825 0.486175
vt 0.388825 0.490448
vt 0.384439 0.490586
vt 0.384552 0.486175
vt 0.388825 0.494300
vt 0.384582 0.494112
vt 0.388825 0.505700
vt 0.384571 0.505880
vt 0.378719 0.506510
vt 0.388825 0.513825
vt 0.384552 0.513825
vt 0.384414 0.509439
vt 0.388825 0.509552
vt 0.380700 0.513825
vt 0.380888 0.509582
vt 0.638825 0.513825
vt 0.634552 0.513825
vt 0.634414 0.509439
vt 0.638825 0.509552
vt 0.630700 0.513825
vt 0.630888 0.509582
vt 0.619300 0.513825
vt 0.619119 0.509571
vt 0.629785 0.495215
vt 0.631913 0.493087
vt 0.628255 0.496745
vt 0.618490 0.503719
vt 0.611175 0.513825
vt 0.611175 0.509552
vt 0.615561 0.509414
vt 0.615448 0.513825
vt 0.611175 0.505700
vt 0.615418 0.505888
vt 0.611175 0.494300
vt 0.615429 0.494119
vt 0.618490 0.493490
vt 0.611175 0.486175
vt 0.615448 0.486175
vt 0.615586 0.490561
vt 0.611175 0.490448
vt 0.619300 0.486175
vt 0.619112 0.490418
s 1
usemtl Stone
f 1/1/1 4/2/4 7/3/7 6/4/6
f 4/2/4 5/5/5 8/6/8 7/3/7
f 5/5/5 17/7/17 18/8/18 8/6/8
f 6/4/6 7/3/7 10/9/10 9/10/9
f 7/3/7 8/6/8 11/11/11 10/9/10
f 8/6/8 18/8/18 19/12/19 11/11/11
f 2/13/2 12/14/12 15/15/15 14/16/14
f 12/14/12 13/17/13 16/18/16 15/15/15
f 13/19/13 25/20/25 26/21/26 16/22/16
f 14/16/14 15/15/15 18/23/18 17/24/17
f 15/15/15 16/18/16 19/25/19 18/23/18
f 16/22/16 26/21/26 27/26/27 19/27/19
f 3/28/3 20/29/20 23/30/23 22/31/22
f 20/29/20 21/32/21 24/33/24 23/30/23
f 21/34/21 9/10/9 10/9/10 24/35/24
f 22/31/22 23/30/23 26/21/26 25/20/25
f 23/30/23 24/33/24 27/26/27 26/21/26
f 24/35/24 10/9/10 11/11/11 27/36/27
f 11/11/11 19/12/19 27/36/27
f 28/37/28 31/38/31 34/39/34 33/40/33
f 31/38/31 32/41/32 35/42/35 34/39/34
f 32/41/32 44/43/44 45/44/45 35/42/35
f 33/40/33 34/39/34 37/45/37 36/46/36
f 34/39/34 35/42/35 38/47/38 37/45/37
f 35/42/35 45/44/45 46/48/46 38/47/38
f 29/49/29 39/50/39 42/51/42 41/52/41
f 39/50/39 40/53/40 43/54/43 42/51/42
f 40/55/40 52/56/52 53/57/53 43/58/43
f 41/52/41 42/51/42 45/59/45 44/60/44
f 42/51/42 43/54/43 46/61/46 45/59/45
f 43/58/43 53/57/53 54/62/54 46/63/46
f 30/64/30 47/65/47 50/66/50 49/67/49
f 47/65/47 48/68/48 51/69/51 50/66/50
f 48/68/48 36/70/36 37/71/37 51/69/51
f 49/67/49 50/66/50 53/57/53 52/56/52
f 50/66/50 51/69/51 54/62/54 53/57/53
f 51/69/51 37/71/37 38/72/38 54/62/54
f 38/72/38 46/63/46 54/62/54
f 55/73/55 58/74/58 61/75/61 60/76/60
f 58/74/58 59/77/59 62/78/62 61/75/61
f 59/77/59 71/79/71 72/80/72 62/78/62
f 60/76/60 61/75/61 64/81/64 63/82/63
f 61/75/61 62/78/62 65/83/65 64/81/64
f 62/78/62 72/80/72 73/84/73 65/83/65
f 56/85/56 66/86/66 69/87/69 68/88/68
f 66/86/66 67/89/67 70/90/70 69/87/69
f 67/89/67 79/91/79 80/92/80 70/90/70
f 68/88/68 69/87/69 72/93/72 71/94/71
f 69/87/69 70/90/70 73/95/73 72/93/72
f 70/90/70 80/92/80 81/96/81 73/95/73
f 57/97/57 74/98/74 77/99/77 76/100/76
f 74/98/74 75/101/75 78/102/78 77/99/77
f 75/103/75 63/82/63 64/81/64 78/104/78
f 76/100/76 77/99/77 80/92/80 79/91/79
f 77/99/77 78/102/78 81/96/81 80/92/80
f 78/104/78 64/81/64 65/83/65 81/105/81
f 65/83/65 73/84/73 81/105/81
f 82/106/82 85/107/85 88/108/88 87/109/87
f 85/107/85 86/110/86 89/111/89 88/108/88
f 86/112/86 98/113/98 99/114/99 89/115/89
f 87/109/87 88/108/88 91/116/91 90/117/90
f 88/108/88 89/111/89 92/118/92 91/116/91
f 89/115/89 99/114/99 100/119/100 92/120/92
f 83/121/83 93/122/93 96/123/96 95/124/95
f 93/122/93 94/125/94 97/126/97 96/123/96
f 94/125/94 106/127/106 107/128/107 97/126/97
f 95/124/95 96/123/96 99/114/99 98/113/98
f 96/123/96 97/126/97 100/119/100 99/114/99
f 97/126/97 107/128/107 108/129/108 100/119/100
f 84/130/84 101/131/101 104/132/104 103/133/103
f 101/131/101 102/134/102 105/135/105 104/132/104
f 102/134/102 90/136/90 91/137/91 105/135/105
f 103/133/103 104/132/104 107/128/107 106/127/106
f 104/132/104 105/135/105 108/129/108 107/128/107
f 105/135/105 91/137/91 92/120/92 108/129/108
f 92/120/92 100/119/100 108/129/108
f 109/138/109 112/139/112 115/140/115 114/141/114
f 112/139/112 113/142/113 116/143/116 115/140/115
f 113/142/113 125/144/125 126/145/126 116/143/116
f 114/141/114 115/140/115 118/146/118 117/147/117
f 115/140/115 116/143/116 119/148/119 118/146/118
f 116/143/116 126/145/126 127/149/127 119/148/119
f 110/150/110 120/151/120 123/152/123 122/153/122
f 120/151/120 121/154/121 124/155/124 123/152/123
f 121/154/121 133/156/133 134/157/134 124/155/124
f 122/153/122 123/152/123 126/145/126 125/144/125
f 123/152/123 124/155/124 127/149/127 126/145/126
f 124/155/124 134/157/134 135/158/135 127/149/127
f 111/159/111 128/160/128 131/161/131 130/162/130
f 128/160/128 129/163/129 132/164/132 131/161/131
f 129/163/129 117/147/117 118/146/118 132/164/132
f 130/162/130 131/161/131 134/157/134 133/156/133
f 131/161/131 132/164/132 135/158/135 134/157/134
f 132/164/132 118/146/118 119/148/119 135/158/135
f 119/148/119 127/149/127 135/158/135
f 136/165/136 139/166/139 142/167/142 141/168/141
f 139/166/139 140/169/140 143/170/143 142/167/142
f 140/169/140 152/171/152 153/172/153 143/170/143
f 141/168/141 142/167/142 145/173/145 144/174/144
f 142/167/142 143/170/143 146/175/146 145/173/145
f 143/170/143 153/172/153 154/176/154 146/175/146
f 137/177/137 147/178/147 150/179/150 149/180/149
f 147/178/147 148/181/148 151/182/151 150/179/150
f 148/181/148 160/183/160 161/184/161 151/182/151
f 149/180/149 150/179/150 153/172/153 152/171/152
f 150/179/150 151/182/151 154/176/154 153/172/153
f 151/182/151 161/184/161 162/185/162 154/176/154
f 138/186/138 155/187/155 158/188/158 157/189/157
f 155/187/155 156/190/156 159/191/159 158/188/158
f 156/190/156 144/174/144 145/173/145 159/191/159
f 157/189/157 158/188/158 161/184/161 160/183/160
f 158/188/158 159/191/159 162/185/162 161/184/161
f 159/191/159 145/173/145 146/175/146 162/185/162
f 146/175/146 154/176/154 162/185/162
f 163/192/163 166/193/166 169/194/169 168/195/168
f 166/193/166 167/196/167 170/197/170 169/194/169
f 167/196/167 179/198/179 180/199/180 170/197/170
f 168/195/168 169/194/169 172/200/172 171/201/171
f 169/194/169 170/197/170 173/202/173 172/200/172
f 170/197/170 180/199/180 181/203/181 173/202/173
f 164/204/164 174/205/174 177/206/177 176/207/176
f 174/205/174 175/208/175 178/209/178 177/206/177
f 175/208/175 187/210/187 188/211/188 178/209/178
f 176/207/176 177/206/177 180/199/180 179/198/179
f 177/206/177 178/209/178 181/203/181 180/199/180
f 178/209/178 188/211/188 189/212/189 181/203/181
f 165/213/165 182/214/182 185/215/185 184/216/184
f 182/214/182 183/217/183 186/218/186 185/215/185
f 183/217/183 171/201/171 172/200/172 186/218/186
f 184/216/184 185/215/185 188/211/188 187/210/187
f 185/215/185 186/218/186 189/212/189 188/211/188
f 186/218/186 172/200/172 173/202/173 189/212/189
f 173/202/173 181/203/181 189/212/189
f 190/219/190 193/220/193 196/221/196 195/222/195
f 193/220/193 194/223/194 197/224/197 196/221/196
f 194/223/194 206/225/206 207/226/207 197/224/197
f 195/222/195 196/221/196 199/227/199 198/228/198
f 196/221/196 197/224/197 200/229/200 199/227/199
f 197/224/197 207/226/207 208/230/208 200/229/200
f 191/231/191 201/232/201 204/233/204 203/234/203
f 201/232/201 202/235/202 205/236/205 204/233/204
f 202/235/202 214/237/214 215/238/215 205/236/205
f 203/234/203 204/233/204 207/226/207 206/225/206
f 204/233/204 205/236/205 208/230/208 207/226/207
f 205/236/205 215/238/215 216/239/216 208/230/208
f 192/240/192 209/241/209 212/242/212 211/243/211
f 209/241/209 210/244/210 213/245/213 212/242/212
f 210/244/210 198/228/198 199/227/199 213/245/213
f 211/243/211 212/242/212 215/238/215 214/237/214
f 212/242/212 213/245/213 216/239/216 215/238/215
f 213/245/213 199/227/199 200/229/200 216/239/216
f 200/229/200 208/230/208 216/239/216
f 55/73/55 1/1/1 6/4/6 58/74/58
f 58/74/58 6/4/6 9/10/9 59/77/59
f 59/77/59 9/10/9 21/34/21 71/79/71
f 71/94/71 21/32/21 20/29/20 68/88/68
f 68/88/68 20/29/20 3/28/3 56/85/56
f 2/13/2 28/37/28 33/40/33 12/14/12
f 12/14/12 33/40/33 36/46/36 13/17/13
f 13/19/13 36/70/36 48/68/48 25/20/25
f 25/20/25 48/68/48 47/65/47 22/31/22
f 22/31/22 47/65/47 30/64/30 3/28/3
f 29/49/29 82/106/82 87/109/87 39/50/39
f 39/50/39 87/109/87 90/117/90 40/53/40
f 40/55/40 90/136/90 102/134/102 52/56/52
f 52/56/52 102/134/102 101/131/101 49/67/49
f 49/67/49 101/131/101 84/130/84 30/64/30
f 83/121/83 57/97/57 76/100/76 93/122/93
f 93/122/93 76/100/76 79/91/79 94/125/94
f 94/125/94 79/91/79 67/89/67 106/127/106
f 106/127/106 67/89/67 66/86/66 103/133/103
f 103/133/103 66/86/66 56/85/56 84/130/84
f 163/192/163 55/73/55 60/76/60 166/193/166
f 166/193/166 60/76/60 63/82/63 167/196/167
f 167/196/167 63/82/63 75/103/75 179/198/179
f 179/198/179 75/101/75 74/98/74 176/207/176
f 176/207/176 74/98/74 57/97/57 164/204/164
f 82/106/82 190/219/190 195/222/195 85/107/85
f 85/107/85 195/222/195 198/228/198 86/110/86
f 86/112/86 198/228/198 210/244/210 98/113/98
f 98/113/98 210/244/210 209/241/209 95/124/95
f 95/124/95 209/241/209 192/240/192 83/121/83
f 191/231/191 165/213/165 184/216/184 201/232/201
f 201/232/201 184/216/184 187/210/187 202/235/202
f 202/235/202 187/210/187 175/208/175 214/237/214
f 214/237/214 175/208/175 174/205/174 211/243/211
f 211/243/211 174/205/174 164/204/164 192/240/192
f 109/138/109 163/192/163 168/195/168 112/139/112
f 112/139/112 168/195/168 171/201/171 113/142/113
f 113/142/113 171/201/171 183/217/183 125/144/125
f 125/144/125 183/217/183 182/214/182 122/153/122
f 122/153/122 182/214/182 165/213/165 110/150/110
f 190/219/190 136/165/136 141/168/141 193/220/193
f 193/220/193 141/168/141 144/174/144 194/223/194
f 194/223/194 144/174/144 156/190/156 206/225/206
f 206/225/206 156/190/156 155/187/155 203/234/203
f 203/234/203 155/187/155 138/186/138 191/231/191
f 137/177/137 111/159/111 130/162/130 147/178/147
f 147/178/147 130/162/130 133/156/133 148/181/148
f 148/181/148 133/156/133 121/154/121 160/183/160
f 160/183/160 121/154/121 120/151/120 157/189/157
f 157/189/157 120/151/120 110/150/110 138/186/138
f 1/1/1 109/138/109 114/141/114 4/2/4
f 4/2/4 114/141/114 117/147/117 5/5/5
f 5/5/5 117/147/117 129/163/129 17/7/17
f 17/24/17 129/163/129 128/160/128 14/16/14
f 14/16/14 128/160/128 111/159/111 2/13/2
f 136/165/136 29/49/29 41/52/41 139/166/139
f 139/166/139 41/52/41 44/60/44 140/169/140
f 140/169/140 44/43/44 32/41/32 152/171/152
f 152/171/152 32/41/32 31/38/31 149/180/149
f 149/180/149 31/38/31 28/37/28 137/177/137
f 55/73/55 163/192/163 109/138/109 1/1/1
f 3/28/3 30/64/30 84/130/84 56/85/56
f 111/159/111 137/177/137 28/37/28 2/13/2
f 190/219/190 82/106/82 29/49/29 136/165/136
f 57/97/57 83/121/83 192/240/192 164/204/164
f 165/213/165 191/231/191 138/186/138 110/150/110
